<svg width="38" height="38" viewBox="0 0 38 38" fill="none" xmlns="http://www.w3.org/2000/svg">
<path d="M26.9167 12.6667V9.50002C26.9167 6.51385 26.9167 5.02235 25.9888 4.09452C25.061 3.16669 23.5695 3.16669 20.5833 3.16669H17.4167C14.4305 3.16669 12.939 3.16669 12.0112 4.09452C11.0833 5.02235 11.0833 6.51385 11.0833 9.50002V12.6667" stroke="url(#paint0_linear_8_80)" stroke-width="2.375"/>
<path d="M16.7263 9.15643C17.4238 8.77617 18.2056 8.57692 19 8.57692C19.7944 8.57692 20.5762 8.77617 21.2737 9.15643L28.8642 13.2953C29.6135 13.7038 30.239 14.3067 30.6748 15.0406C31.1105 15.7745 31.3405 16.6123 31.3405 17.4658V25.2843C31.3405 26.1378 31.1105 26.9755 30.6748 27.7094C30.239 28.4433 29.6135 29.0462 28.8642 29.4548L21.2737 33.5936C20.5762 33.9739 19.7944 34.1731 19 34.1731C18.2056 34.1731 17.4238 33.9739 16.7263 33.5936L9.13425 29.4548C8.38516 29.046 7.76003 28.443 7.32455 27.7091C6.88908 26.9753 6.65934 26.1376 6.6595 25.2843V17.4642C6.65934 16.6108 6.88908 15.7732 7.32455 15.0393C7.76003 14.3054 8.38516 13.7024 9.13425 13.2937L16.7263 9.15643Z" stroke="url(#paint1_linear_8_80)" stroke-width="2.375"/>
<path d="M17.6478 18.2448C18.2495 17.1649 18.5503 16.625 19 16.625C19.4497 16.625 19.7505 17.1649 20.3522 18.2448L20.5073 18.5234C20.6783 18.8306 20.7638 18.9826 20.8968 19.0855C21.0314 19.1853 21.1977 19.2233 21.5302 19.2993L21.831 19.3673C22.9995 19.6318 23.5837 19.7632 23.7231 20.2113C23.8624 20.6578 23.4634 21.1233 22.667 22.0543L22.4612 22.2949C22.2347 22.5609 22.1207 22.6923 22.0701 22.857C22.0194 23.0201 22.0368 23.1958 22.0701 23.5505L22.1017 23.8719C22.2221 25.1133 22.2822 25.7355 21.9197 26.011C21.5555 26.2881 21.0077 26.0363 19.9136 25.5328L19.6317 25.4014C19.3198 25.2589 19.1647 25.1877 19 25.1877C18.8353 25.1877 18.6802 25.2589 18.3682 25.4014L18.0864 25.5328C16.9923 26.0363 16.4445 26.2881 16.0803 26.011C15.7162 25.7355 15.7779 25.1133 15.8982 23.8719L15.9299 23.5489C15.9632 23.1958 15.9806 23.0201 15.9299 22.857C15.8792 22.6923 15.7652 22.5609 15.5388 22.2949L15.333 22.0543C14.5366 21.1233 14.1376 20.6578 14.2769 20.2113C14.4162 19.7632 15.0005 19.6318 16.169 19.3673L16.4698 19.2993C16.8023 19.2233 16.9686 19.1853 17.1032 19.0855C17.2362 18.9842 17.3217 18.8306 17.4927 18.5234L17.6478 18.2448Z" fill="url(#paint2_linear_8_80)"/>
<defs>
<linearGradient id="paint0_linear_8_80" x1="19" y1="3.16669" x2="19" y2="12.6667" gradientUnits="userSpaceOnUse">
<stop stop-color="#F8F188"/>
<stop offset="1" stop-color="#C86E3B"/>
</linearGradient>
<linearGradient id="paint1_linear_8_80" x1="19" y1="8.57692" x2="19" y2="34.1731" gradientUnits="userSpaceOnUse">
<stop stop-color="#F8DF5C"/>
<stop offset="1" stop-color="#D5974A"/>
</linearGradient>
<linearGradient id="paint2_linear_8_80" x1="19" y1="16.625" x2="19" y2="26.1255" gradientUnits="userSpaceOnUse">
<stop stop-color="#D6994B"/>
<stop offset="1" stop-color="#F9E35D"/>
</linearGradient>
</defs>
</svg>
